<?xml version="1.0" encoding="iso-8859-1"?>
<!-- Generator: Adobe Illustrator 19.0.0, SVG Export Plug-In . SVG Version: 6.00 Build 0)  -->
<svg version="1.1" id="Capa_1" xmlns="http://www.w3.org/2000/svg" xmlns:xlink="http://www.w3.org/1999/xlink" x="0px" y="0px"
	 viewBox="0 0 468.293 468.293" style="enable-background:new 0 0 468.293 468.293;" xml:space="preserve">
<path style="fill:#EBF0F3;" d="M430.829,0.001L37.464,0C16.773,0,0,16.773,0,37.464l0,196.683v196.683
	c0,20.691,16.773,37.463,37.463,37.463h393.365c20.69,0,37.463-16.773,37.463-37.463l0-196.683V37.464
	C468.293,16.773,451.519,0.001,430.829,0.001z"/>
<path style="fill:#27A2DB;" d="M87.071,390.244L87.071,390.244c-8.19,0-14.829-6.639-14.829-14.829V92.878
	c0-8.19,6.639-14.829,14.829-14.829h0c8.19,0,14.829,6.639,14.829,14.829v282.537C101.9,383.605,95.261,390.244,87.071,390.244z"/>
<path style="fill:#64798A;" d="M83.378,197.659c6.397-0.287,12.612,0.583,18.522,2.342V92.878c0-8.19-6.639-14.829-14.829-14.829
	c-8.19,0-14.829,6.639-14.829,14.829V199.08C75.878,198.349,79.587,197.829,83.378,197.659z"/>
<path style="fill:#27A2DB;" d="M185.017,390.244h-0.312c-8.19,0-14.829-6.639-14.829-14.829V92.878
	c0-8.19,6.639-14.829,14.829-14.829h0.312c8.19,0,14.829,6.639,14.829,14.829v282.537
	C199.846,383.605,193.207,390.244,185.017,390.244z"/>
<path style="fill:#64798A;" d="M187.259,287.374c4.1-0.184,8.346,0.216,12.588,1.097V92.878c0-8.19-6.639-14.829-14.829-14.829
	h-0.313c-8.19,0-14.829,6.639-14.829,14.829v197.115C175.578,288.509,181.449,287.634,187.259,287.374z"/>
<path style="fill:#27A2DB;" d="M283.431,390.244h-1.561c-8.19,0-14.829-6.639-14.829-14.829V92.878
	c0-8.19,6.639-14.829,14.829-14.829h1.561c8.19,0,14.829,6.639,14.829,14.829v282.537
	C298.261,383.605,291.621,390.244,283.431,390.244z"/>
<path style="fill:#64798A;" d="M272.252,203.325c9.224-0.413,18.012,1.491,26.008,5.089V92.878c0-8.19-6.639-14.829-14.829-14.829
	h-1.561c-8.19,0-14.829,6.639-14.829,14.829v110.919C268.769,203.594,270.5,203.404,272.252,203.325z"/>
<path style="fill:#27A2DB;" d="M381.221,390.244h-1.561c-8.19,0-14.829-6.639-14.829-14.829V92.878
	c0-8.19,6.639-14.829,14.829-14.829h1.561c8.19,0,14.829,6.639,14.829,14.829v282.537
	C396.051,383.605,389.411,390.244,381.221,390.244z"/>
<path style="fill:#64798A;" d="M387.091,274.049c3.113,0,6.076,0.228,8.96,0.569V92.878c0-8.19-6.639-14.829-14.829-14.829h-1.561
	c-8.19,0-14.829,6.639-14.829,14.829v184.679C371.462,275.317,378.866,274.049,387.091,274.049z"/>
<path style="fill:#44C4A1;" d="M102.681,221.659h-31.22c-10.345,0-18.732-8.386-18.732-18.732v-62.439
	c0-10.345,8.386-18.732,18.732-18.732h31.22c10.345,0,18.732,8.386,18.732,18.732v62.439
	C121.412,213.272,113.026,221.659,102.681,221.659z"/>
<g>
	<path style="fill:#3EA69B;" d="M99.558,165.462H74.582c-3.448,0-6.244,2.795-6.244,6.244v0c0,3.448,2.795,6.244,6.244,6.244h24.976
		c3.448,0,6.244-2.795,6.244-6.244v0C105.802,168.258,103.006,165.462,99.558,165.462z"/>
	<path style="fill:#3EA69B;" d="M99.558,190.438H74.582c-3.448,0-6.244,2.796-6.244,6.244l0,0c0,3.448,2.795,6.244,6.244,6.244
		h24.976c3.448,0,6.244-2.796,6.244-6.244l0,0C105.802,193.233,103.006,190.438,99.558,190.438z"/>
	<path style="fill:#3EA69B;" d="M99.558,140.487H74.582c-3.448,0-6.244,2.795-6.244,6.244v0c0,3.448,2.795,6.244,6.244,6.244h24.976
		c3.448,0,6.244-2.796,6.244-6.244v0C105.802,143.282,103.006,140.487,99.558,140.487z"/>
</g>
<path style="fill:#44C4A1;" d="M298.261,221.659h-31.22c-10.345,0-18.732-8.386-18.732-18.732v-62.439
	c0-10.345,8.386-18.732,18.732-18.732h31.22c10.345,0,18.732,8.386,18.732,18.732v62.439
	C316.992,213.272,308.606,221.659,298.261,221.659z"/>
<g>
	<path style="fill:#3EA69B;" d="M295.138,165.462h-24.976c-3.448,0-6.244,2.795-6.244,6.244v0c0,3.448,2.796,6.244,6.244,6.244
		h24.976c3.448,0,6.244-2.795,6.244-6.244v0C301.382,168.258,298.586,165.462,295.138,165.462z"/>
	<path style="fill:#3EA69B;" d="M295.138,190.438h-24.976c-3.448,0-6.244,2.796-6.244,6.244l0,0c0,3.448,2.796,6.244,6.244,6.244
		h24.976c3.448,0,6.244-2.796,6.244-6.244l0,0C301.382,193.233,298.586,190.438,295.138,190.438z"/>
	<path style="fill:#3EA69B;" d="M295.138,140.487h-24.976c-3.448,0-6.244,2.795-6.244,6.244v0c0,3.448,2.796,6.244,6.244,6.244
		h24.976c3.448,0,6.244-2.796,6.244-6.244v0C301.382,143.282,298.586,140.487,295.138,140.487z"/>
</g>
<path style="fill:#E56353;" d="M396.051,346.537h-31.22c-10.345,0-18.732-8.387-18.732-18.732v-62.439
	c0-10.345,8.386-18.732,18.732-18.732h31.22c10.345,0,18.732,8.386,18.732,18.732v62.439
	C414.782,338.15,406.396,346.537,396.051,346.537z"/>
<g>
	<path style="fill:#D15241;" d="M392.928,290.34h-24.976c-3.448,0-6.244,2.795-6.244,6.244l0,0c0,3.448,2.795,6.244,6.244,6.244
		h24.976c3.448,0,6.244-2.796,6.244-6.244l0,0C399.172,293.136,396.376,290.34,392.928,290.34z"/>
	<path style="fill:#D15241;" d="M392.928,315.316h-24.976c-3.448,0-6.244,2.796-6.244,6.244l0,0c0,3.448,2.795,6.244,6.244,6.244
		h24.976c3.448,0,6.244-2.796,6.244-6.244l0,0C399.172,318.111,396.376,315.316,392.928,315.316z"/>
	<path style="fill:#D15241;" d="M392.928,265.365h-24.976c-3.448,0-6.244,2.796-6.244,6.244l0,0c0,3.448,2.795,6.244,6.244,6.244
		h24.976c3.448,0,6.244-2.796,6.244-6.244l0,0C399.172,268.16,396.376,265.365,392.928,265.365z"/>
</g>
<path style="fill:#E56353;" d="M200.471,346.537h-31.22c-10.345,0-18.732-8.387-18.732-18.732v-62.439
	c0-10.345,8.386-18.732,18.732-18.732h31.22c10.345,0,18.732,8.386,18.732,18.732v62.439
	C219.202,338.15,210.816,346.537,200.471,346.537z"/>
<g>
	<path style="fill:#D15241;" d="M197.348,290.34h-24.976c-3.448,0-6.244,2.795-6.244,6.244l0,0c0,3.448,2.795,6.244,6.244,6.244
		h24.976c3.448,0,6.244-2.796,6.244-6.244l0,0C203.592,293.136,200.796,290.34,197.348,290.34z"/>
	<path style="fill:#D15241;" d="M197.348,315.316h-24.976c-3.448,0-6.244,2.796-6.244,6.244l0,0c0,3.448,2.795,6.244,6.244,6.244
		h24.976c3.448,0,6.244-2.796,6.244-6.244l0,0C203.592,318.111,200.796,315.316,197.348,315.316z"/>
	<path style="fill:#D15241;" d="M197.348,265.365h-24.976c-3.448,0-6.244,2.796-6.244,6.244l0,0c0,3.448,2.795,6.244,6.244,6.244
		h24.976c3.448,0,6.244-2.796,6.244-6.244l0,0C203.592,268.16,200.796,265.365,197.348,265.365z"/>
</g>
<g>
</g>
<g>
</g>
<g>
</g>
<g>
</g>
<g>
</g>
<g>
</g>
<g>
</g>
<g>
</g>
<g>
</g>
<g>
</g>
<g>
</g>
<g>
</g>
<g>
</g>
<g>
</g>
<g>
</g>
</svg>
