<?xml version="1.0" encoding="iso-8859-1"?>
<!-- Generator: Adobe Illustrator 19.0.0, SVG Export Plug-In . SVG Version: 6.00 Build 0)  -->
<svg version="1.1" id="Capa_1" xmlns="http://www.w3.org/2000/svg" xmlns:xlink="http://www.w3.org/1999/xlink" x="0px" y="0px"
	 viewBox="0 0 512 512" style="enable-background:new 0 0 512 512;" xml:space="preserve">
<path style="fill:#303C42;" d="M508.877,429.792L379.875,300.789c2.72-4.905,5.393-9.841,7.69-14.956
	c2.417-5.375,0.021-11.688-5.354-14.104c-5.375-2.406-11.708,0-14.104,5.354c-1.212,2.697-2.71,5.25-4.053,7.884l-4.509-4.509
	c-3.042-3.052-7.667-3.958-11.625-2.313c-3.979,1.646-6.583,5.542-6.583,9.854v213.333c0,4.313,2.604,8.208,6.583,9.854
	c1.313,0.552,2.708,0.813,4.083,0.813c2.771,0,5.5-1.083,7.542-3.125L420.419,448h80.917c4.313,0,8.208-2.594,9.854-6.583
	C512.836,437.427,511.919,432.844,508.877,429.792z"/>
<path style="fill:#546E7A;" d="M416.002,426.667c-2.833,0-5.542,1.125-7.542,3.125l-45.792,45.792V325.305
	c1.443-0.733,2.753-1.784,3.771-3.18c0.654-0.892,1.182-1.879,1.822-2.783l107.324,107.324H416.002z"/>
<g>
	<path style="fill:#303C42;" d="M119.544,17.74c-12.75,5.729-24.938,12.823-36.271,21.083c-4.75,3.469-5.792,10.146-2.333,14.896
		c2.104,2.865,5.333,4.385,8.625,4.385c2.188,0,4.396-0.667,6.292-2.052c10.125-7.385,21.042-13.729,32.438-18.854
		c5.375-2.417,7.771-8.729,5.354-14.104C131.231,17.729,124.898,15.312,119.544,17.74z"/>
	<path style="fill:#303C42;" d="M38.898,83.208c-8.25,11.271-15.375,23.49-21.125,36.292c-2.417,5.375-0.021,11.688,5.354,14.104
		c1.417,0.635,2.917,0.938,4.375,0.938c4.063,0,7.958-2.344,9.729-6.292c5.146-11.448,11.5-22.365,18.875-32.438
		c3.479-4.75,2.458-11.427-2.292-14.906C49.044,77.438,42.377,78.458,38.898,83.208z"/>
	<path style="fill:#303C42;" d="M382.898,182.521c0.729,6.615,1.104,13.333,1.104,20.146s-0.375,13.531-1.104,20.146
		c-0.646,5.854,3.583,11.125,9.438,11.771c0.396,0.042,0.792,0.063,1.188,0.063c5.354,0,9.979-4.042,10.583-9.5
		c0.813-7.385,1.229-14.875,1.229-22.479s-0.417-15.094-1.229-22.479c-0.646-5.865-6.042-10.042-11.771-9.438
		C386.481,171.396,382.252,176.667,382.898,182.521z"/>
	<path style="fill:#303C42;" d="M368.106,128.25c1.771,3.948,5.667,6.292,9.729,6.292c1.458,0,2.958-0.302,4.375-0.938
		c5.375-2.417,7.771-8.729,5.354-14.104c-5.75-12.802-12.875-25.021-21.125-36.292c-3.479-4.771-10.146-5.792-14.917-2.302
		c-4.75,3.479-5.771,10.156-2.292,14.906C356.606,105.885,362.961,116.802,368.106,128.25z"/>
	<path style="fill:#303C42;" d="M285.794,17.74c-5.375-2.417-11.708-0.01-14.104,5.354c-2.417,5.375-0.021,11.688,5.354,14.104
		c11.396,5.125,22.313,11.469,32.438,18.854c1.896,1.385,4.104,2.052,6.292,2.052c3.292,0,6.521-1.521,8.625-4.385
		c3.458-4.75,2.417-11.427-2.333-14.896C310.731,30.563,298.544,23.469,285.794,17.74z"/>
	<path style="fill:#303C42;" d="M225.148,1.229C217.773,0.417,210.273,0,202.669,0c-7.604,0-15.104,0.417-22.479,1.229
		c-5.854,0.646-10.083,5.917-9.438,11.771c0.604,5.458,5.229,9.5,10.583,9.5c0.396,0,0.792-0.021,1.188-0.063
		c6.625-0.729,13.333-1.104,20.146-1.104s13.521,0.375,20.146,1.104c0.396,0.042,0.792,0.063,1.188,0.063
		c5.354,0,9.979-4.042,10.583-9.5C235.231,7.146,231.002,1.875,225.148,1.229z"/>
	<path style="fill:#303C42;" d="M22.44,222.813c-0.729-6.615-1.104-13.333-1.104-20.146s0.375-13.531,1.104-20.146
		c0.646-5.854-3.583-11.125-9.437-11.771c-5.813-0.625-11.125,3.573-11.771,9.438c-0.812,7.385-1.229,14.875-1.229,22.479
		s0.417,15.094,1.229,22.479c0.604,5.458,5.229,9.5,10.583,9.5c0.396,0,0.792-0.021,1.188-0.063
		C18.856,233.938,23.086,228.667,22.44,222.813z"/>
	<path style="fill:#303C42;" d="M128.294,368.135c-11.396-5.125-22.313-11.469-32.438-18.854c-4.75-3.469-11.417-2.427-14.917,2.333
		c-3.458,4.75-2.417,11.427,2.333,14.896c11.333,8.26,23.521,15.354,36.271,21.083c1.417,0.635,2.917,0.938,4.375,0.938
		c4.063,0,7.958-2.344,9.729-6.292C136.065,376.865,133.669,370.552,128.294,368.135z"/>
	<path style="fill:#303C42;" d="M37.231,277.083c-2.396-5.365-8.75-7.781-14.104-5.354c-5.375,2.417-7.771,8.729-5.354,14.104
		c5.75,12.802,12.875,25.021,21.125,36.292c2.083,2.854,5.333,4.365,8.604,4.365c2.188,0,4.396-0.667,6.313-2.063
		c4.75-3.479,5.771-10.156,2.292-14.906C48.731,299.448,42.377,288.531,37.231,277.083z"/>
	<path style="fill:#303C42;" d="M309.481,349.281c-10.125,7.385-21.042,13.729-32.438,18.854c-5.375,2.417-7.771,8.729-5.354,14.104
		c1.771,3.948,5.667,6.292,9.729,6.292c1.458,0,2.958-0.302,4.375-0.938c12.75-5.729,24.938-12.823,36.271-21.083
		c4.75-3.469,5.792-10.146,2.333-14.896C320.898,346.854,314.231,345.813,309.481,349.281z"/>
	<path style="fill:#303C42;" d="M222.815,382.896c-6.625,0.729-13.333,1.104-20.146,1.104s-13.521-0.375-20.146-1.104
		c-5.854-0.625-11.125,3.573-11.771,9.438c-0.646,5.854,3.583,11.125,9.438,11.771c7.375,0.813,14.875,1.229,22.479,1.229
		c7.604,0,15.104-0.417,22.479-1.229c5.854-0.646,10.083-5.917,9.438-11.771C233.94,386.469,228.586,382.292,222.815,382.896z"/>
</g>
<linearGradient id="SVGID_1_" gradientUnits="userSpaceOnUse" x1="-45.9696" y1="640.6714" x2="-21.1905" y2="629.1173" gradientTransform="matrix(21.3333 0 0 -21.3333 996.3333 13791.667)">
	<stop  offset="0" style="stop-color:#FFFFFF;stop-opacity:0.2"/>
	<stop  offset="1" style="stop-color:#FFFFFF;stop-opacity:0"/>
</linearGradient>
<path style="fill:url(#SVGID_1_);" d="M508.877,429.792L379.875,300.789c2.72-4.905,5.393-9.841,7.69-14.956
	c2.417-5.375,0.021-11.688-5.354-14.104c-5.375-2.406-11.708,0-14.104,5.354c-1.212,2.697-2.71,5.25-4.053,7.884l-4.509-4.509
	c-3.042-3.052-7.667-3.958-11.625-2.313c-3.979,1.646-6.583,5.542-6.583,9.854v213.333c0,4.313,2.604,8.208,6.583,9.854
	c1.313,0.552,2.708,0.813,4.083,0.813c2.771,0,5.5-1.083,7.542-3.125L420.419,448h80.917c4.313,0,8.208-2.594,9.854-6.583
	C512.836,437.427,511.919,432.844,508.877,429.792z M119.544,17.74c-12.75,5.729-24.938,12.823-36.271,21.083
	c-4.75,3.469-5.792,10.146-2.333,14.896c2.104,2.865,5.333,4.385,8.625,4.385c2.188,0,4.396-0.667,6.292-2.052
	c10.125-7.385,21.042-13.729,32.438-18.854c5.375-2.417,7.771-8.729,5.354-14.104C131.231,17.729,124.898,15.312,119.544,17.74z
	 M38.898,83.208c-8.25,11.271-15.375,23.49-21.125,36.292c-2.417,5.375-0.021,11.688,5.354,14.104
	c1.417,0.635,2.917,0.938,4.375,0.938c4.063,0,7.958-2.344,9.729-6.292c5.146-11.448,11.5-22.365,18.875-32.438
	c3.479-4.75,2.458-11.427-2.292-14.906C49.044,77.438,42.377,78.458,38.898,83.208z M382.898,182.521
	c0.729,6.615,1.104,13.333,1.104,20.146s-0.375,13.531-1.104,20.146c-0.646,5.854,3.583,11.125,9.438,11.771
	c0.396,0.042,0.792,0.063,1.188,0.063c5.354,0,9.979-4.042,10.583-9.5c0.813-7.385,1.229-14.875,1.229-22.479
	s-0.417-15.094-1.229-22.479c-0.646-5.865-6.042-10.042-11.771-9.438C386.481,171.396,382.252,176.667,382.898,182.521z
	 M368.106,128.25c1.771,3.948,5.667,6.292,9.729,6.292c1.458,0,2.958-0.302,4.375-0.938c5.375-2.417,7.771-8.729,5.354-14.104
	c-5.75-12.802-12.875-25.021-21.125-36.292c-3.479-4.771-10.146-5.792-14.917-2.302c-4.75,3.479-5.771,10.156-2.292,14.906
	C356.606,105.885,362.961,116.802,368.106,128.25z M285.794,17.74c-5.375-2.417-11.708-0.01-14.104,5.354
	c-2.417,5.375-0.021,11.688,5.354,14.104c11.396,5.125,22.313,11.469,32.438,18.854c1.896,1.385,4.104,2.052,6.292,2.052
	c3.292,0,6.521-1.521,8.625-4.385c3.458-4.75,2.417-11.427-2.333-14.896C310.731,30.563,298.544,23.469,285.794,17.74z
	 M225.148,1.229C217.773,0.417,210.273,0,202.669,0c-7.604,0-15.104,0.417-22.479,1.229c-5.854,0.646-10.083,5.917-9.438,11.771
	c0.604,5.458,5.229,9.5,10.583,9.5c0.396,0,0.792-0.021,1.188-0.063c6.625-0.729,13.333-1.104,20.146-1.104
	s13.521,0.375,20.146,1.104c0.396,0.042,0.792,0.063,1.188,0.063c5.354,0,9.979-4.042,10.583-9.5
	C235.231,7.146,231.002,1.875,225.148,1.229z M22.44,222.813c-0.729-6.615-1.104-13.333-1.104-20.146s0.375-13.531,1.104-20.146
	c0.646-5.854-3.583-11.125-9.437-11.771c-5.813-0.625-11.125,3.573-11.771,9.438c-0.812,7.385-1.229,14.875-1.229,22.479
	s0.417,15.094,1.229,22.479c0.604,5.458,5.229,9.5,10.583,9.5c0.396,0,0.792-0.021,1.188-0.063
	C18.856,233.938,23.086,228.667,22.44,222.813z M128.294,368.135c-11.396-5.125-22.313-11.469-32.438-18.854
	c-4.75-3.469-11.417-2.427-14.917,2.333c-3.458,4.75-2.417,11.427,2.333,14.896c11.333,8.26,23.521,15.354,36.271,21.083
	c1.417,0.635,2.917,0.938,4.375,0.938c4.063,0,7.958-2.344,9.729-6.292C136.065,376.865,133.669,370.552,128.294,368.135z
	 M37.231,277.083c-2.396-5.365-8.75-7.781-14.104-5.354c-5.375,2.417-7.771,8.729-5.354,14.104
	c5.75,12.802,12.875,25.021,21.125,36.292c2.083,2.854,5.333,4.365,8.604,4.365c2.188,0,4.396-0.667,6.313-2.063
	c4.75-3.479,5.771-10.156,2.292-14.906C48.731,299.448,42.377,288.531,37.231,277.083z M309.481,349.281
	c-10.125,7.385-21.042,13.729-32.438,18.854c-5.375,2.417-7.771,8.729-5.354,14.104c1.771,3.948,5.667,6.292,9.729,6.292
	c1.458,0,2.958-0.302,4.375-0.938c12.75-5.729,24.938-12.823,36.271-21.083c4.75-3.469,5.792-10.146,2.333-14.896
	C320.898,346.854,314.231,345.813,309.481,349.281z M222.815,382.896c-6.625,0.729-13.333,1.104-20.146,1.104
	s-13.521-0.375-20.146-1.104c-5.854-0.625-11.125,3.573-11.771,9.438c-0.646,5.854,3.583,11.125,9.438,11.771
	c7.375,0.813,14.875,1.229,22.479,1.229c7.604,0,15.104-0.417,22.479-1.229c5.854-0.646,10.083-5.917,9.438-11.771
	C233.94,386.469,228.586,382.292,222.815,382.896z"/>
<g>
</g>
<g>
</g>
<g>
</g>
<g>
</g>
<g>
</g>
<g>
</g>
<g>
</g>
<g>
</g>
<g>
</g>
<g>
</g>
<g>
</g>
<g>
</g>
<g>
</g>
<g>
</g>
<g>
</g>
</svg>
