<svg height="512pt" viewBox="0 0 512 512" width="512pt" xmlns="http://www.w3.org/2000/svg"><path d="m352.300781 288.699219-129-129 39-38.699219h-141.300781v141.300781l38.699219-39 129 129-39 38.699219h141.300781v-141.300781zm0 0" fill="#76e2f8"/><path d="m30 271h30v30h-30zm0 0" fill="#4a696f"/><path d="m211 452h30v30h-30zm0 0" fill="#4a696f"/><path d="m271 452h30v30h-30zm0 0" fill="#384949"/><path d="m30 211h30v30h-30zm0 0" fill="#4a696f"/><path d="m452 211h30v30h-30zm0 0" fill="#384949"/><path d="m452 271h30v30h-30zm0 0" fill="#384949"/><path d="m211 30h30v30h-30zm0 0" fill="#4a696f"/><path d="m271 30h30v30h-30zm0 0" fill="#384949"/><g fill="#4a696f"><path d="m30 75h30v106h-30zm0 0"/><path d="m75 30h106v30h-106zm0 0"/><path d="m30 331h30v106h-30zm0 0"/><path d="m75 452h106v30h-106zm0 0"/></g><path d="m331 452h106v30h-106zm0 0" fill="#384949"/><path d="m452 331h30v106h-30zm0 0" fill="#384949"/><path d="m331 30h106v30h-106zm0 0" fill="#384949"/><path d="m452 75h30v106h-30zm0 0" fill="#384949"/><path d="m422 422v90h90v-90zm0 0" fill="#76e2f8"/><path d="m90 512h-90v-90h90zm0 0" fill="#76e2f8"/><path d="m512 90h-90v-90h90zm0 0" fill="#4bb9ec"/><path d="m0 0v90h90v-90zm0 0" fill="#76e2f8"/><path d="m0 0h90v90zm0 0" fill="#4bb9ec"/><path d="m352.300781 288.699219 38.699219-39v141.300781l-270-270h141.300781l-39 38.699219zm0 0" fill="#4bb9ec"/><path d="m512 422v90l-90-90zm0 0" fill="#4bb9ec"/></svg>