<svg id="Capa_1" enable-background="new 0 0 512 512" height="512" viewBox="0 0 512 512" width="512" xmlns="http://www.w3.org/2000/svg"><path d="m202.92 330.27-6.98 6.98-32.66 32.66-10.59-10.58-10.63-10.63 32.67-32.67 6.98-6.98 10.63 10.63z" fill="#baebf4"/><path d="m511.98 191.58c0 51.17-19.93 99.28-56.12 135.46-36.18 36.19-84.29 56.12-135.46 56.12-46.14 0-89.79-16.2-124.46-45.91-3.77-3.24-7.43-6.63-10.98-10.19-.01 0-.02-.01-.03-.02-3.56-3.56-6.96-7.23-10.2-11.01-29.71-34.66-45.91-78.31-45.91-124.45 0-51.17 19.93-99.28 56.11-135.47 36.19-36.18 84.3-56.11 135.47-56.11s99.28 19.93 135.46 56.11c.01.01.02.02.02.03 36.18 36.19 56.1 84.28 56.1 135.44z" fill="#39689e"/><path d="m202.92 330.27-6.98 6.98-32.66 32.66-10.59-10.58 32.27-32.27 7.38-7.38z" fill="#8db9cc"/><path d="m511.98 191.58c0 51.17-19.93 99.28-56.12 135.46-36.18 36.19-84.29 56.12-135.46 56.12-46.14 0-89.79-16.2-124.46-45.91-3.77-3.24-7.43-6.63-10.98-10.19l270.92-270.92c36.18 36.19 56.1 84.28 56.1 135.44z" fill="#224370"/><path d="m204.75 386.43-34.11 34.12-21.22 21.21-53.84 53.84c-10.57 10.58-24.63 16.4-39.58 16.4s-29.01-5.82-39.58-16.4c-10.58-10.57-16.4-24.63-16.4-39.58s5.82-29.01 16.4-39.58l53.84-53.84 21.22-21.21 34.11-34.12 39.58 39.58z" fill="#75e2f8"/><path d="m165.17 346.85 39.58 39.58-34.11 34.12-21.22 21.21-53.84 53.84c-10.57 10.58-24.63 16.4-39.58 16.4s-29.01-5.82-39.58-16.4z" fill="#23c4ea"/><path d="m420.51 291.69c-26.74 26.74-62.29 41.47-100.11 41.47-37.81 0-73.35-14.72-100.09-41.45-.01-.01-.01-.01-.02-.02-26.7-26.7-41.41-62.26-41.41-100.11 0-37.86 14.7-73.41 41.41-100.11 26.74-26.74 62.29-41.47 100.11-41.47s73.37 14.73 100.11 41.47c.01.01.01.01.02.02 55.18 55.2 55.17 145.01-.02 200.2z" fill="#dff2f7"/><path d="m170.64 420.55-21.22 21.21-79.16-79.16 21.22-21.21 39.58 39.58z" fill="#39689e"/><path d="m125.239 383.378h30.003v55.975h-30.003z" fill="#224370" transform="matrix(.707 -.707 .707 .707 -249.803 219.65)"/><path d="m420.51 291.69c-26.74 26.74-62.29 41.47-100.11 41.47-37.81 0-73.35-14.72-100.09-41.45l200.22-200.22c55.18 55.2 55.17 145.01-.02 200.2z" fill="#baebf4"/><path d="m392.31 175.66v35.06h-56v55.99h-35.05v-55.99h-56v-35.06h56v-55.99h35.05v55.99z" fill="#fe4a4a"/><path d="m392.31 175.66v35.06h-56v55.99h-35.05v-55.95l35.1-35.1z" fill="#e80b6a"/></svg>